<svg width="175" height="46" viewBox="0 0 175 46" fill="none" xmlns="http://www.w3.org/2000/svg">
<path d="M19.3944 45.9999V-0.00012207C19.3944 -0.00012207 16.0858 4.59988 10.1704 7.29988C4.25503 9.99988 0.0440674 10.7999 0.0440674 10.7999C0.0440674 10.7999 0.0440674 14.6999 0.0440674 24.2999C0.0440674 45.5999 19.3944 45.9999 19.3944 45.9999Z" fill="#1962BA"/>
<path d="M19.3949 45.9999V-0.00012207C19.3949 -0.00012207 22.7035 4.59988 28.6189 7.29988C34.5343 9.99988 38.7453 10.7999 38.7453 10.7999C38.7453 10.7999 38.7453 14.6999 38.7453 24.2999C38.7453 45.5999 19.3949 45.9999 19.3949 45.9999Z" fill="#1962BA"/>
<path d="M28.4184 39.5H20.4978V27.8H16.6878V39.5H8.76721V10.3H16.6878V20.6H20.4978V10.3H28.4184V39.5Z" fill="white"/>
<path d="M50.0747 10.4H54.3859V22.8H60.7024V10.4H65.0136V42.1H60.7024V26.5H54.3859V42.2H50.0747V10.4Z" fill="#232323"/>
<path d="M68.6227 10.4H80.0525V14H72.934V24.1H79.2504V27.7H72.934V38.5H80.0525V42.1H68.6227V10.4Z" fill="#232323"/>
<path d="M82.7597 10.4H88.3743C90.6803 10.4 92.485 11 93.5879 12.1C94.9916 13.5 95.7936 15.7 95.7936 18.7C95.7936 21 95.3926 22.8 94.6908 24.2C93.8887 25.6 92.8861 26.4 91.3822 26.8L97.1973 42.2H92.8861L87.0709 26.7V42.2H82.7597V10.4V10.4ZM86.9707 24.5C88.6751 24.5 89.778 24.1 90.4798 23.3C91.1816 22.5 91.4824 21.2 91.4824 19.4C91.4824 18.4 91.3822 17.6 91.2819 16.9C91.1816 16.2 90.8809 15.6 90.5801 15.2C90.2793 14.8 89.8782 14.4 89.3769 14.2C88.8756 14 88.2741 13.9 87.6725 13.9H86.9707V24.5V24.5Z" fill="#232323"/>
<path d="M114.944 27.0998C114.944 32.6998 114.342 36.6998 113.039 38.9998C111.835 41.3998 109.73 42.4998 106.722 42.4998C103.614 42.4998 101.408 41.1998 100.205 38.6998C99.0021 36.1998 98.3002 31.7998 98.3002 25.4998C98.3002 19.8998 98.9018 15.8998 100.205 13.4998C101.408 11.0998 103.614 9.99985 106.522 9.99985C109.229 9.99985 111.134 10.8998 112.437 12.6998C113.239 13.8998 113.941 15.6998 114.342 17.8998C114.743 19.9998 114.944 23.0998 114.944 27.0998ZM110.532 27.4998C110.532 21.9998 110.332 18.3998 109.83 16.5998C109.329 14.7998 108.326 13.8998 106.822 13.8998C105.319 13.8998 104.316 14.6998 103.815 16.3998C103.313 18.0998 103.113 21.3998 103.113 26.4998C103.113 31.0998 103.414 34.3998 103.915 36.1998C104.416 37.8998 105.419 38.6998 106.923 38.6998C108.326 38.6998 109.329 37.8998 109.931 36.2998C110.231 34.6998 110.532 31.7998 110.532 27.4998Z" fill="#232323"/>
<path d="M118.052 10.4H122.262V32.8C122.262 35.1 122.463 36.6 122.864 37.4C123.265 38.2 124.167 38.5 125.371 38.5C126.574 38.5 127.476 38.2 127.877 37.5C128.278 36.8 128.479 35.5 128.479 33.4V10.4H132.69V33.4C132.69 36.9 132.188 39.2 131.085 40.4C129.782 41.8 127.877 42.5 125.27 42.5C122.363 42.5 120.358 41.6 119.255 39.8C118.453 38.6 118.052 36.2 118.052 32.8V10.4V10.4Z" fill="#232323"/>
<path d="M136.299 10.4H140.31L144.621 23.1C145.824 26.7 146.927 30.5 147.929 34.5C147.629 32 147.328 29.8 147.127 27.8C146.927 25.8 146.927 23.9 146.927 22.2V10.4H151.238V42.1H147.228L142.415 27.8C142.014 26.5 141.513 25.1 141.212 23.7C140.811 22.3 140.41 20.8 140.109 19.3C140.109 19.1 140.009 18.9 140.009 18.6C139.908 18.3 139.908 18 139.808 17.7C139.808 18.1 139.908 18.4 139.908 18.6C139.908 18.9 139.908 19.1 140.009 19.2L140.209 22.4L140.41 26.3C140.41 26.5 140.41 26.8 140.41 27.1C140.41 27.4 140.41 27.8 140.41 28.2L140.61 42H136.399V10.4H136.299Z" fill="#232323"/>
<path d="M154.847 10.4H159.159V42.1H154.847V10.4Z" fill="#232323"/>
<path d="M161.064 10.4H175V14.1H170.187V42.1H165.977V14.1H161.064V10.4Z" fill="#232323"/>
</svg>
