<svg width="1440" height="652" viewBox="0 0 1440 652" fill="none" xmlns="http://www.w3.org/2000/svg">
<path d="M-30 89L1485 0L1494 650.5H-30V89Z" fill="#3972A1"/>
<g opacity="0.1">
<path d="M1170 224.1H1303.4C1303.4 224.1 1306 212.5 1300.2 206.7C1294.4 200.9 1286 206.7 1286 206.7C1286 206.7 1288 192.5 1275.7 188C1263.4 183.5 1254.4 192.5 1254.4 192.5C1254.4 192.5 1253.8 177 1237 177C1220.2 177 1219.6 193.8 1219.6 193.8C1219.6 193.8 1209.3 188.6 1199.6 195.7C1189.9 202.8 1193.2 209.9 1193.2 209.9C1193.2 209.9 1184.8 213.8 1180.3 217C1175.8 220.2 1170 224.1 1170 224.1Z" fill="white"/>
</g>
<g opacity="0.1">
<path d="M1042 499.1H1175.4C1175.4 499.1 1178 487.5 1172.2 481.7C1166.4 475.9 1158 481.7 1158 481.7C1158 481.7 1160 467.5 1147.7 463C1135.4 458.5 1126.4 467.5 1126.4 467.5C1126.4 467.5 1125.8 452 1109 452C1092.2 452 1091.6 468.8 1091.6 468.8C1091.6 468.8 1081.3 463.6 1071.6 470.7C1061.9 477.8 1065.2 484.9 1065.2 484.9C1065.2 484.9 1056.8 488.8 1052.3 492C1047.8 495.2 1042 499.1 1042 499.1Z" fill="white"/>
</g>
<g opacity="0.1">
<path d="M305 295.1H438.4C438.4 295.1 441 283.5 435.2 277.7C429.4 271.9 421 277.7 421 277.7C421 277.7 423 263.5 410.7 259C398.4 254.5 389.4 263.5 389.4 263.5C389.4 263.5 388.8 248 372 248C355.2 248 354.6 264.8 354.6 264.8C354.6 264.8 344.3 259.6 334.6 266.7C324.9 273.8 328.2 280.9 328.2 280.9C328.2 280.9 319.8 284.8 315.3 288C310.8 291.2 305 295.1 305 295.1Z" fill="white"/>
</g>
<g opacity="0.1">
<path d="M-67 282.1H66.4C66.4 282.1 69 270.5 63.2 264.7C57.4 258.9 49 264.7 49 264.7C49 264.7 51 250.5 38.7 246C26.4 241.5 17.4 250.5 17.4 250.5C17.4 250.5 16.8 235 0 235C-16.8 235 -17.4 251.8 -17.4 251.8C-17.4 251.8 -27.7 246.6 -37.4 253.7C-47.1 260.8 -43.8 267.9 -43.8 267.9C-43.8 267.9 -52.2 271.8 -56.7 275C-61.2 278.2 -67 282.1 -67 282.1Z" fill="white"/>
</g>
<g opacity="0.1">
<path d="M177 452.1H310.4C310.4 452.1 313 440.5 307.2 434.7C301.4 428.9 293 434.7 293 434.7C293 434.7 295 420.5 282.7 416C270.4 411.5 261.4 420.5 261.4 420.5C261.4 420.5 260.8 405 244 405C227.2 405 226.6 421.8 226.6 421.8C226.6 421.8 216.3 416.6 206.6 423.7C196.9 430.8 200.2 437.9 200.2 437.9C200.2 437.9 191.8 441.8 187.3 445C182.8 448.2 177 452.1 177 452.1Z" fill="white"/>
</g>
<g opacity="0.7">
<g filter="url(#filter0_f)">
<path d="M1126.71 253.117C1138.29 203.929 1108.57 164 1060.5 164C1012.44 164 964.084 203.832 952.503 253.02C940.921 302.208 970.647 342.137 1018.71 342.137C1066.87 342.137 1115.23 302.304 1126.71 253.117Z" fill="#E9C363"/>
</g>
<g filter="url(#filter1_f)">
<path d="M1050.75 193.802C1050.75 193.802 1039.75 205.762 1023.05 212.706C1006.45 219.65 995.452 221.676 995.452 221.676C995.452 221.676 993.135 231.61 987.248 256.493C974.411 311.274 1022.86 312.239 1022.86 312.239" fill="#0571A9"/>
<path d="M1050.37 195.731L1050.85 193.802C1050.85 193.802 1056.26 205.761 1069.67 212.705C1082.99 219.649 1093.03 221.675 1093.03 221.675C1093.03 221.675 1090.71 231.609 1084.82 256.492C1071.99 311.274 1023.05 312.238 1023.05 312.238" fill="#0571A9"/>
</g>
<g filter="url(#filter2_f)">
<path d="M1049.79 295.553H1030L1037.05 265.366H1027.59L1020.55 295.553H1000.76L1018.33 220.421H1038.11L1031.84 246.944H1041.3L1047.57 220.421H1067.35L1049.79 295.553Z" fill="#E9C363"/>
</g>
<g opacity="0.8" filter="url(#filter3_f)">
<path d="M979.039 329.698L1172.09 474L1224 445.777L1124.74 214.984L1054.17 326.511L979.039 329.698Z" fill="#E9C363"/>
</g>
</g>
<g opacity="0.6" filter="url(#filter4_f)">
<path d="M30 593.5H-0.5V648H1438V550H1369V479.5H1326.5V534H1298.5V619H1254V574H1093V543H1068.5V508.5H1019V602H864V522.5H803.5V574H769.5V543H728.5V574H694.5V602H662.5V543L619.5 586H378.5V435H309.5V586H265V522.5L201.5 586V543L151 593.5H76V508.5H30V593.5Z" fill="#030608"/>
</g>
<path d="M1273.21 482.24H1150.26L1147.08 538.386H1114.23V604.067H1072.89V548.98H1054.87C1054.87 548.98 1054.87 530.971 1054.87 520.377C1054.87 509.784 1047.46 498.131 1033.68 498.131C1019.9 498.131 1014.6 514.021 1014.6 520.377C1014.6 526.733 1014.6 579.701 1014.6 579.701H983.863L983 438.807L961.5 410.5L940.409 438.807V489.656H906.494V560.633H820.645V604.067H636.229V543.683L599.134 486.478L559.919 534.149H536.603V478.003H506.926V444.104H450.754V539.446H417.898V484.359H365.965V569.108H279.057V603.007H183.669V534.149H101V650.5H1274L1273.21 482.24Z" fill="#06202F"/>
<path d="M1165.1 481.74V474.325L1224.45 443.604C1224.45 443.604 1245.65 451.019 1248.83 456.316C1252.01 461.613 1254.13 481.74 1254.13 481.74H1165.1Z" fill="#082C41"/>
<path d="M1224.58 444.913L1167.08 474.913C1166.42 470.08 1169.48 458.013 1187.08 448.413C1204.68 438.813 1219.42 442.08 1224.58 444.913Z" fill="#E9C363"/>
<rect opacity="0.7" x="461" y="476.536" width="14.5122" height="15.1304" fill="#E9AC63"/>
<rect opacity="0.7" x="461" y="453" width="14.5122" height="15.1304" fill="#E9AC63"/>
<rect opacity="0.7" x="481.488" y="453" width="14.5122" height="15.1304" fill="#E9AC63"/>
<rect opacity="0.7" x="481.488" y="476.536" width="14.5122" height="15.1304" fill="#E9AC63"/>
<rect opacity="0.7" x="481.488" y="515.203" width="14.5122" height="15.1304" fill="#E9AC63"/>
<rect opacity="0.7" x="568" y="544" width="11.6875" height="12.2727" fill="#E9AC63"/>
<rect opacity="0.7" x="520" y="544" width="11.6875" height="12.2727" fill="#E9AC63"/>
<rect opacity="0.7" x="520" y="560" width="11.6875" height="12.2727" fill="#E9AC63"/>
<rect opacity="0.7" x="520" y="576" width="11.6875" height="12.2727" fill="#E9AC63"/>
<rect opacity="0.7" x="589.312" y="544" width="11.6875" height="12.2727" fill="#E9AC63"/>
<rect opacity="0.7" x="915" y="501" width="11.6875" height="12.2727" fill="#E9AC63"/>
<rect opacity="0.7" x="935" y="501" width="11.6875" height="12.2727" fill="#E9AC63"/>
<rect opacity="0.7" x="935" y="520" width="11.6875" height="12.2727" fill="#E9AC63"/>
<rect opacity="0.7" x="955" y="520" width="11.6875" height="12.2727" fill="#E9AC63"/>
<rect opacity="0.7" x="915" y="539" width="11.6875" height="12.2727" fill="#E9AC63"/>
<rect opacity="0.7" x="935" y="539" width="11.6875" height="12.2727" fill="#E9AC63"/>
<rect opacity="0.7" x="955" y="539" width="11.6875" height="12.2727" fill="#E9AC63"/>
<rect opacity="0.7" x="935" y="558" width="11.6875" height="12.2727" fill="#E9AC63"/>
<rect opacity="0.7" x="915" y="577" width="11.6875" height="12.2727" fill="#E9AC63"/>
<rect opacity="0.7" x="935" y="577" width="11.6875" height="12.2727" fill="#E9AC63"/>
<rect opacity="0.7" x="955" y="577" width="11.6875" height="12.2727" fill="#E9AC63"/>
<rect opacity="0.7" x="1028" y="559" width="11.6875" height="12.2727" fill="#E9AC63"/>
<rect opacity="0.7" x="1028" y="521" width="11.6875" height="12.2727" fill="#E9AC63"/>
<rect opacity="0.7" x="1045" y="577" width="11.6875" height="12.2727" fill="#E9AC63"/>
<rect opacity="0.7" x="1224" y="495" width="11.6875" height="12.2727" fill="#E9AC63"/>
<rect opacity="0.7" x="1204" y="495" width="11.6875" height="12.2727" fill="#E9AC63"/>
<rect opacity="0.7" x="1164" y="495" width="11.6875" height="12.2727" fill="#E9AC63"/>
<rect opacity="0.7" x="1244" y="495" width="11.6875" height="12.2727" fill="#E9AC63"/>
<rect opacity="0.7" x="1204" y="514" width="11.6875" height="12.2727" fill="#E9AC63"/>
<rect opacity="0.7" x="1184" y="514" width="11.6875" height="12.2727" fill="#E9AC63"/>
<rect opacity="0.7" x="1164" y="514" width="11.6875" height="12.2727" fill="#E9AC63"/>
<rect opacity="0.7" x="1244" y="514" width="11.6875" height="12.2727" fill="#E9AC63"/>
<rect opacity="0.7" x="1224" y="533" width="11.6875" height="12.2727" fill="#E9AC63"/>
<rect opacity="0.7" x="1204" y="533" width="11.6875" height="12.2727" fill="#E9AC63"/>
<rect opacity="0.7" x="1184" y="533" width="11.6875" height="12.2727" fill="#E9AC63"/>
<rect opacity="0.7" x="1244" y="533" width="11.6875" height="12.2727" fill="#E9AC63"/>
<rect opacity="0.7" x="1204" y="552" width="11.6875" height="12.2727" fill="#E9AC63"/>
<rect opacity="0.7" x="1164" y="552" width="11.6875" height="12.2727" fill="#E9AC63"/>
<rect opacity="0.7" x="1244" y="552" width="11.6875" height="12.2727" fill="#E9AC63"/>
<rect opacity="0.7" x="1224" y="571" width="11.6875" height="12.2727" fill="#E9AC63"/>
<rect opacity="0.7" x="1204" y="571" width="11.6875" height="12.2727" fill="#E9AC63"/>
<rect opacity="0.7" x="1184" y="571" width="11.6875" height="12.2727" fill="#E9AC63"/>
<rect opacity="0.7" x="1164" y="571" width="11.6875" height="12.2727" fill="#E9AC63"/>
<rect opacity="0.7" x="1224" y="590" width="11.6875" height="12.2727" fill="#E9AC63"/>
<rect opacity="0.7" x="1204" y="590" width="11.6875" height="12.2727" fill="#E9AC63"/>
<rect opacity="0.7" x="1184" y="590" width="11.6875" height="12.2727" fill="#E9AC63"/>
<rect opacity="0.7" x="1244" y="590" width="11.6875" height="12.2727" fill="#E9AC63"/>
<rect opacity="0.7" x="839" y="577" width="11.6875" height="12.2727" fill="#E9AC63"/>
<rect opacity="0.7" x="879" y="577" width="11.6875" height="12.2727" fill="#E9AC63"/>
<rect opacity="0.7" x="568" y="560.364" width="11.6875" height="12.2727" fill="#E9AC63"/>
<rect opacity="0.7" x="609" y="560.364" width="11.6875" height="12.2727" fill="#E9AC63"/>
<rect opacity="0.7" x="568" y="576.727" width="11.6875" height="12.2727" fill="#E9AC63"/>
<rect opacity="0.7" x="589.312" y="576.727" width="11.6875" height="12.2727" fill="#E9AC63"/>
<rect opacity="0.7" x="377" y="495" width="13.0661" height="13.8392" fill="#E9AC63"/>
<rect opacity="0.7" x="394.934" y="495" width="13.0661" height="13.8392" fill="#E9AC63"/>
<rect opacity="0.7" x="377" y="516.528" width="13.0661" height="13.8392" fill="#E9AC63"/>
<rect opacity="0.7" x="377" y="557.97" width="13.0661" height="13.8392" fill="#E9AC63"/>
<rect opacity="0.7" x="394.934" y="557.97" width="13.0661" height="13.8392" fill="#E9AC63"/>
<rect opacity="0.7" x="377" y="582.161" width="13.0661" height="13.8392" fill="#E9AC63"/>
<rect opacity="0.7" x="318" y="582.161" width="13.0661" height="13.8392" fill="#E9AC63"/>
<rect opacity="0.7" x="295" y="582.161" width="13.0661" height="13.8392" fill="#E9AC63"/>
<rect opacity="0.7" x="113" y="549" width="13.0661" height="13.8392" fill="#E9AC63"/>
<rect opacity="0.7" x="133" y="570" width="13.0661" height="13.8392" fill="#E9AC63"/>
<rect opacity="0.7" x="153" y="549" width="13.0661" height="13.8392" fill="#E9AC63"/>
<rect opacity="0.7" x="153" y="589" width="13.0661" height="13.8392" fill="#E9AC63"/>
<rect opacity="0.7" x="461" y="566.514" width="13.061" height="13.4858" fill="#E9AC63"/>
<g opacity="0.1">
<path d="M1383 348.1H1516.4C1516.4 348.1 1519 336.5 1513.2 330.7C1507.4 324.9 1499 330.7 1499 330.7C1499 330.7 1501 316.5 1488.7 312C1476.4 307.5 1467.4 316.5 1467.4 316.5C1467.4 316.5 1466.8 301 1450 301C1433.2 301 1432.6 317.8 1432.6 317.8C1432.6 317.8 1422.3 312.6 1412.6 319.7C1402.9 326.8 1406.2 333.9 1406.2 333.9C1406.2 333.9 1397.8 337.8 1393.3 341C1388.8 344.2 1383 348.1 1383 348.1Z" fill="white"/>
</g>
<defs>
<filter id="filter0_f" x="946" y="160" width="187.214" height="186.137" filterUnits="userSpaceOnUse" color-interpolation-filters="sRGB">
<feFlood flood-opacity="0" result="BackgroundImageFix"/>
<feBlend mode="normal" in="SourceGraphic" in2="BackgroundImageFix" result="shape"/>
<feGaussianBlur stdDeviation="2" result="effect1_foregroundBlur"/>
</filter>
<filter id="filter1_f" x="981.083" y="189.802" width="115.944" height="126.437" filterUnits="userSpaceOnUse" color-interpolation-filters="sRGB">
<feFlood flood-opacity="0" result="BackgroundImageFix"/>
<feBlend mode="normal" in="SourceGraphic" in2="BackgroundImageFix" result="shape"/>
<feGaussianBlur stdDeviation="2" result="effect1_foregroundBlur"/>
</filter>
<filter id="filter2_f" x="996.76" y="216.421" width="74.595" height="83.1319" filterUnits="userSpaceOnUse" color-interpolation-filters="sRGB">
<feFlood flood-opacity="0" result="BackgroundImageFix"/>
<feBlend mode="normal" in="SourceGraphic" in2="BackgroundImageFix" result="shape"/>
<feGaussianBlur stdDeviation="2" result="effect1_foregroundBlur"/>
</filter>
<filter id="filter3_f" x="975.039" y="210.984" width="252.961" height="267.016" filterUnits="userSpaceOnUse" color-interpolation-filters="sRGB">
<feFlood flood-opacity="0" result="BackgroundImageFix"/>
<feBlend mode="normal" in="SourceGraphic" in2="BackgroundImageFix" result="shape"/>
<feGaussianBlur stdDeviation="2" result="effect1_foregroundBlur"/>
</filter>
<filter id="filter4_f" x="-4.5" y="431" width="1446.5" height="221" filterUnits="userSpaceOnUse" color-interpolation-filters="sRGB">
<feFlood flood-opacity="0" result="BackgroundImageFix"/>
<feBlend mode="normal" in="SourceGraphic" in2="BackgroundImageFix" result="shape"/>
<feGaussianBlur stdDeviation="2" result="effect1_foregroundBlur"/>
</filter>
</defs>
</svg>
